<svg width="154" height="36" viewBox="0 0 154 36" fill="none" xmlns="http://www.w3.org/2000/svg">
<path d="M38.1223 32.7745C41.2474 35.8982 46.3597 35.8245 49.3909 32.555C52.1473 29.582 52.1473 24.914 49.3909 21.941C46.3597 18.6716 41.2474 18.5979 38.1223 21.7216L32.9295 26.9122C32.7435 27.0981 32.7435 27.3979 32.9295 27.5839L38.1223 32.7745Z" fill="#D0C5FB"/>
<path d="M34.9217 20.6565C38.0467 17.5328 37.973 12.4226 34.7022 9.39261C31.7279 6.63736 27.0579 6.63736 24.0837 9.39261C20.8129 12.4226 20.7391 17.5328 23.8642 20.6565L29.057 25.8471C29.243 26.033 29.5429 26.033 29.7289 25.8471L34.9217 20.6565Z" fill="#EFE669"/>
<path d="M20.6655 32.7745C17.5405 35.8982 12.4281 35.8245 9.3969 32.555C6.64049 29.582 6.64049 24.914 9.3969 21.941C12.4281 18.6716 17.5405 18.5979 20.6655 21.7216L25.8583 26.9122C26.0443 27.0981 26.0443 27.3979 25.8583 27.5839L20.6655 32.7745Z" fill="#00D1C6"/>
<path d="M29.394 5.18222C30.8256 5.18222 31.9862 4.02214 31.9862 2.59111C31.9862 1.16008 30.8256 0 29.394 0C27.9623 0 26.8018 1.16008 26.8018 2.59111C26.8018 4.02214 27.9623 5.18222 29.394 5.18222Z" fill="#EFE669"/>
<path d="M55.9848 29.8385C57.4164 29.8385 58.577 28.6784 58.577 27.2474C58.577 25.8163 57.4164 24.6562 55.9848 24.6562C54.5531 24.6562 53.3926 25.8163 53.3926 27.2474C53.3926 28.6784 54.5531 29.8385 55.9848 29.8385Z" fill="#D0C5FB"/>
<path d="M2.5922 29.8385C4.02383 29.8385 5.1844 28.6784 5.1844 27.2474C5.1844 25.8163 4.02383 24.6562 2.5922 24.6562C1.16057 24.6562 0 25.8163 0 27.2474C0 28.6784 1.16057 29.8385 2.5922 29.8385Z" fill="#00D1C6"/>
<path d="M81.675 27.6723C81.675 28.2269 81.4594 28.6933 81.0261 29.0696C80.5928 29.4459 80.1341 29.634 79.6459 29.634C79.0695 29.634 78.5813 29.4125 78.1833 28.9696L72.196 22.6516L70.5668 24.1469V27.639C70.5668 28.2152 70.3786 28.6973 70.0022 29.0853C69.6257 29.4733 69.1474 29.6673 68.571 29.6673C67.9946 29.6673 67.5182 29.4733 67.1418 29.0853C66.7634 28.6973 66.5771 28.2152 66.5771 27.639V7.09175C66.5771 6.5156 66.7654 6.03352 67.1418 5.6455C67.5182 5.25749 67.9946 5.06348 68.571 5.06348C69.1474 5.06348 69.6238 5.25749 70.0022 5.6455C70.3786 6.03352 70.5668 6.5156 70.5668 7.09175V19.3946L77.6854 12.5122C78.1069 12.0909 78.5951 11.8812 79.1499 11.8812C79.638 11.8812 80.0752 12.087 80.4634 12.4966C80.8516 12.9061 81.0457 13.3235 81.0457 13.7429C81.0457 14.274 80.7791 14.7737 80.2478 15.2382L75.2249 19.8591L81.0457 26.1771C81.4652 26.62 81.675 27.1197 81.675 27.6723Z" fill="#3D4343"/>
<path d="M99.7724 21.6539C99.3725 21.9871 98.9078 22.1537 98.3746 22.1537H87.3977C87.6643 23.4608 88.2741 24.4876 89.2269 25.2284C90.1797 25.9711 91.256 26.3415 92.4539 26.3415C93.3635 26.3415 94.0713 26.2592 94.583 26.0926C95.0927 25.926 95.4985 25.7497 95.7965 25.5615C96.0965 25.3734 96.3004 25.246 96.4121 25.1794C96.8121 24.9795 97.1885 24.8796 97.5433 24.8796C98.0099 24.8796 98.4079 25.0461 98.7412 25.3793C99.0745 25.7124 99.2411 26.1005 99.2411 26.5433C99.2411 27.141 98.9294 27.6858 98.3099 28.1718C97.6884 28.6814 96.8572 29.1144 95.8142 29.4691C94.7712 29.8239 93.7184 30.0002 92.6538 30.0002C90.7914 30.0002 89.1661 29.6122 87.78 28.8362C86.3939 28.0601 85.3235 26.9902 84.5707 25.6282C83.8159 24.2642 83.4395 22.7298 83.4395 21.0229C83.4395 19.1161 83.8394 17.4426 84.6373 16.0022C85.4352 14.5618 86.488 13.4585 87.7977 12.6943C89.1053 11.93 90.5032 11.5479 91.9892 11.5479C93.4537 11.5479 94.8339 11.9476 96.1298 12.7452C97.4277 13.5428 98.4628 14.6187 99.2411 15.9709C100.017 17.323 100.406 18.7869 100.406 20.3605C100.38 20.8897 100.17 21.3227 99.7724 21.6539ZM87.431 18.8281H96.1455V18.5949C96.0573 17.664 95.6024 16.8664 94.781 16.2001C93.9595 15.5358 93.0283 15.2027 91.9873 15.2027C89.4151 15.2046 87.8957 16.4118 87.431 18.8281Z" fill="#3D4343"/>
<path d="M107.471 29.0853C107.083 29.4733 106.601 29.6673 106.024 29.6673C105.47 29.6673 105.005 29.4733 104.629 29.0853C104.25 28.6973 104.062 28.2152 104.062 27.639V7.09175C104.062 6.5156 104.256 6.03352 104.644 5.6455C105.032 5.25749 105.515 5.06348 106.091 5.06348C106.646 5.06348 107.111 5.25749 107.487 5.6455C107.865 6.03352 108.052 6.5156 108.052 7.09175V27.641C108.054 28.2171 107.86 28.6992 107.471 29.0853Z" fill="#3D4343"/>
<path d="M112.843 9.35089C112.533 9.10789 112.376 8.6748 112.376 8.05358V7.4206C112.376 6.80134 112.543 6.36826 112.876 6.1233C113.21 5.88029 113.741 5.75684 114.472 5.75684C115.249 5.75684 115.792 5.87834 116.103 6.1233C116.413 6.36826 116.57 6.79938 116.57 7.4206V8.05358C116.57 8.69636 116.409 9.13337 116.088 9.36657C115.766 9.59977 115.217 9.71539 114.441 9.71539C113.686 9.71735 113.155 9.59585 112.843 9.35089ZM115.903 29.0849C115.527 29.4729 115.049 29.6669 114.472 29.6669C113.896 29.6669 113.419 29.4729 113.043 29.0849C112.665 28.6969 112.478 28.2148 112.478 27.6386V13.9072C112.478 13.331 112.667 12.8489 113.043 12.4609C113.419 12.0729 113.896 11.8789 114.472 11.8789C115.049 11.8789 115.525 12.0729 115.903 12.4609C116.28 12.8489 116.468 13.331 116.468 13.9072V27.6386C116.47 28.2168 116.282 28.6988 115.903 29.0849Z" fill="#3D4343"/>
<path d="M132.868 12.4278C134.021 13.0157 134.597 13.7956 134.597 14.7715C134.597 15.2595 134.452 15.6867 134.164 16.0512C133.876 16.4177 133.499 16.5999 133.033 16.5999C132.678 16.5999 132.39 16.549 132.168 16.451C131.947 16.351 131.731 16.2178 131.519 16.0512C131.307 15.8846 131.104 15.7475 130.904 15.6358C130.682 15.5241 130.355 15.4261 129.923 15.3359C129.49 15.2477 129.141 15.2027 128.874 15.2027C127.212 15.2027 125.908 15.7181 124.965 16.7489C124.022 17.7796 123.552 19.1259 123.552 20.7878C123.552 22.3829 124.028 23.7077 124.983 24.762C125.936 25.8163 127.155 26.3415 128.641 26.3415C129.727 26.3415 130.537 26.2082 131.068 25.9417C131.202 25.8751 131.384 25.7595 131.617 25.5929C131.85 25.4263 132.066 25.2989 132.266 25.2108C132.466 25.1226 132.709 25.0775 132.997 25.0775C133.552 25.0775 133.989 25.2558 134.311 25.6086C134.632 25.9633 134.793 26.4179 134.793 26.9725C134.793 27.5036 134.483 28.0033 133.862 28.4697C133.24 28.9361 132.419 29.3065 131.4 29.5828C130.38 29.8591 129.292 29.9983 128.139 29.9983C126.432 29.9983 124.93 29.5985 123.632 28.8009C122.334 28.0033 121.33 26.9 120.621 25.493C119.911 24.0859 119.556 22.5162 119.556 20.7878C119.556 18.9927 119.927 17.3955 120.67 16.0003C121.413 14.603 122.45 13.5115 123.779 12.7256C125.11 11.9398 126.618 11.5459 128.304 11.5459C130.196 11.5459 131.715 11.8399 132.868 12.4278Z" fill="#3D4343"/>
<path d="M153.126 27.6723C153.126 28.2269 152.91 28.6933 152.477 29.0696C152.044 29.4458 151.585 29.634 151.097 29.634C150.52 29.634 150.032 29.4125 149.632 28.9696L143.645 22.6516L142.014 24.1469V27.639C142.014 28.2152 141.825 28.6973 141.449 29.0853C141.073 29.4733 140.594 29.6673 140.02 29.6673C139.443 29.6673 138.965 29.4733 138.589 29.0853C138.21 28.6973 138.024 28.2152 138.024 27.639V7.09175C138.024 6.5156 138.212 6.03352 138.589 5.6455C138.965 5.25749 139.441 5.06348 140.02 5.06348C140.596 5.06348 141.073 5.25749 141.449 5.6455C141.825 6.03352 142.014 6.5156 142.014 7.09175V19.3946L149.132 12.5122C149.554 12.0909 150.042 11.8812 150.597 11.8812C151.085 11.8812 151.522 12.087 151.91 12.4966C152.298 12.9061 152.492 13.3235 152.492 13.7429C152.492 14.274 152.226 14.7737 151.695 15.2382L146.672 19.8591L152.492 26.1771C152.916 26.62 153.126 27.1197 153.126 27.6723Z" fill="#3D4343"/>
</svg>
